<!-- icon666.com - MILLIONS vector ICONS FREE --><svg id="Goose" enable-background="new 0 0 64 64" viewBox="0 0 64 64" xmlns="http://www.w3.org/2000/svg"><g><path d="m34.8268 63.2441h-10.6195c-.6923 0-1.0551-.8439-.5613-1.3291 2.0884-2.0522 4.1788-3.1969 4.1788-3.1969v-15.0297h4.6223v15.0297s1.6947 1.5311 3.0163 3.2836c.3846.51.0023 1.2424-.6366 1.2424z" fill="#f4770f"></path><path d="m27.8268 43.683h4.6244v12.6358c-1.4873-.0875-3.0371-.25-4.6244-.4875z" opacity=".09"></path><path d="m42.2305 63.2441h-10.6194c-.6923 0-1.0551-.8439-.5613-1.3291 2.0884-2.0522 4.1787-3.1969 4.1787-3.1969v-15.0297h4.6223v15.0297s1.6948 1.5311 3.0163 3.2836c.3846.5101.0022 1.2424-.6366 1.2424z" fill="#ff8b17"></path><path d="m39.8503 43.683v12.4608c-1.5498.2-3.0746.275-4.5619.275h-.0626v-12.7358z" opacity=".09"></path><path d="m10.9163 7.7058c-.0508-3.8508 2.6226-6.4877 5.1592-6.8293 10.7323-1.4453 9.5782 10.0565 8.9792 17.4896-.2848 3.5341.4234 7.8943 12.6642 10.419 3.8119.7862 11.8822 1.5431 16.9023-4.2455.2876-.3316 1.0009-1.5797 1.6147-1.4294.7687.1883 1.1285 2.2156.6691 4.2881-.2228 1.0049-.9914 2.2461-.9914 2.2461s.2349-.2204 1.206-1.182c.8813-.8726 1.3786-1.8418 1.8442-1.7575.5429.0983.976 1.0738.7278 3.9839-.4773 5.5968-2.0431 27.5207-31.7146 23.1562-9.6263-1.416-19.8577-9.146-16.1224-24.8559.7139-3.0025 3.1276-7.0195 1.7949-13.7219-.4391-2.2087-3.658-2.8559-2.7332-7.5614z" fill="#f4f4f4"></path><path d="m59.6929 30.6878c-.4749 5.5992-2.0498 27.5214-31.7209 23.1594-8.6864-1.2748-17.8476-7.699-16.8228-20.4723.8999 10.2487 9.0489 15.498 16.8228 16.6353 28.4838 4.187 31.0709-15.8354 31.6459-22.3971.15.625.1999 1.5999.075 3.0747z" opacity=".09"></path><path d="m10.9163 7.7058c.8599 3.9583 4.094 5.1353 3.7157 6.5142-.3657 1.3332-4.4183 1.3396-5.7465 1.2703-3.4287-.1788-4.7719-.6829-4.6376-1.4815.2546-1.5135 3.9806-2.8172 6.6684-6.303z" fill="#ff8b17"></path><path d="m14.6363 14.2149c-.3749 1.3373-4.4245 1.3498-5.7493 1.2748-3.4245-.175-4.7743-.6874-4.6368-1.4748.0375-.2625.1874-.5249.4249-.7874.6249.3749 1.9873.6249 4.2119.7499 1.1499.05 4.362.0625 5.4243-.8249.2874.375.425.7125.325 1.0624z" opacity=".09"></path><path d="m32.3952 31.441c6.5527.1997 7.8765 2.8706 14.5714 4.3165.7921.1711 1.7016.1997 1.8725.7671.1368.4544-1.3483 2.0595-3.6224 2.7221.8851.3154 2.614.59 2.7327.8784.3872.9408-2.9355 2.7054-5.1262 3.0354.6697.2811 2.8253.3624 2.7818.8861-.2897 3.4896-11.5432 6.1236-18.4409 2.4469-3.4997-1.8655-5.2722-5.6231-3.9543-9.6198 1.1525-3.4949 5.5194-5.5444 9.1854-5.4327z" fill="#ddd"></path><path d="m45.6038 44.0492c-.2875 3.4871-11.5361 6.1242-18.4351 2.4497-3.0496-1.6248-4.7869-4.6744-4.312-8.074.3749 2.4872 1.9497 4.5994 4.312 5.8617 5.7118 3.0371 14.3981 1.7623 17.3852-.7499.5875.1126 1.0749.2626 1.0499.5125z" opacity=".09"></path><path d="m17.5444 5.0352c.7683 0 1.3911.6228 1.3911 1.3911s-.6228 1.3911-1.3911 1.3911-1.3911-.6228-1.3911-1.3911.6228-1.3911 1.3911-1.3911zm41.5574 20.9332c-.5356-.1017-.9351.188-1.312.5939.2162-1.9466-.1868-3.8931-1.3744-4.1848-.9862-.2404-1.7039.7683-2.1799 1.4341-.0732.1019-.1343.1892-.177.2392-4.8773 5.6176-12.9475 4.6655-16.193 3.9942-12.6339-2.6071-12.2634-7.1664-12.0645-9.6161l.036-.4485c.4327-5.3216 1.0246-12.6101-2.6053-16.0557-1.6972-1.6099-4.1389-2.2147-7.2549-1.7966-2.8233.3887-5.6875 3.2061-5.7852 7.2706-1.2993 1.6297-2.8433 2.7726-4.0951 3.6881-1.4018 1.0253-2.4142 1.7655-2.5882 2.7975-.0653.3894.0323.7598.2826 1.0722.4217.5254 1.3524 1.0893 5.0555 1.2822.3271.0171.7366.0317 1.1894.0317.9175 0 2.0083-.0665 2.9715-.2793.7862 4.6713-.2929 7.9294-1.1834 10.555-.2722.8031-.5297 1.5623-.6982 2.2727-1.5928 6.6959-.7934 12.6558 2.3123 17.2365 2.9311 4.3232 7.8772 7.3303 13.6396 8.3713v3.8574c-.7226.4394-2.3398 1.5013-3.9662 3.0977-.4357.4357-.5633 1.0875-.3253 1.6636.2406.58.7966.9547 1.4172.9547h18.0232c.5871 0 1.1156-.3283 1.3792-.858.26-.5212.2051-1.1314-.1416-1.5916-1.0558-1.4073-2.3325-2.662-2.8634-3.1637v-3.6143c4.4088-.6571 8.1407-2.1652 11.1399-4.5426 7.5552-5.9868 8.3717-15.6669 8.6793-19.3115l.0134-.1611c.1648-1.9223.2063-4.5086-1.3315-4.7888zm-50.1772-11.2271c-3.246-.1697-3.8557-.6133-3.9289-.6133-.0049 0-.0073.0018-.0079.0055.072-.4302 1.0491-1.1449 1.9938-1.8357 1.0918-.7982 2.3953-1.7515 3.6165-3.0605.6438 1.638 1.6459 2.7236 2.4203 3.5628.4211.4559.9447 1.0234.8904 1.2205-.1686.4357-2.4309.8537-4.9842.7207zm15.2421 47.7062c1.9809-1.9443 4.0016-3.0648 4.0217-3.0758.2398-.1318.3894-.3845.3894-.6579v-4.0402c1.0645.1438 2.1104.2632 3.1252.3421v3.6981c0 .2099.0879.4101.2417.5529.0047.0039.1984.1836.4892.4669-.6624.5192-1.3139 1.0674-1.905 1.6422-.2962.2897-.4407.6776-.4428 1.0736zm9.4844-3.6209c-.1773-.1752-.3344-.3281-.4493-.4375v-3.2844c.4309.0201.8541.0304 1.2755.0383v3.1411c-.2052.1257-.4994.319-.8262.5425zm5.6974.4438c.0159.0146 1.6636 1.511 2.8793 3.2308l-7.3258-.0122-3.3171-.0389c-.0002 0-.0002-.0002-.0003-.0002h-.0098c.941-.9154 1.8406-1.6148 2.4325-2.0432.9166-.6701 1.5721-1.0314 1.5794-1.035.2404-.1318.3894-.3845.3894-.6579v-3.5756c1.0761-.0183 2.1162-.0825 3.1258-.1855v3.7611c0 .2124.0891.4138.2466.5566zm19.5909-28.6413-.0146.1636c-.2917 3.4676-1.068 12.6778-8.1154 18.2618-5.2178 4.1352-12.8609 5.4949-22.7229 4.0424-5.6896-.8349-10.5766-3.708-13.4071-7.8823-2.9037-4.2841-3.6085-9.6838-2.0945-16.0489.152-.642.3869-1.3353.6591-2.1372.914-2.6953 2.1451-6.3761 1.1991-11.5619.4488-.2623.7882-.5973.9118-1.0481.2746-1.0008-.4247-1.7582-1.2346-2.6358-.8905-.9645-1.9925-2.1658-2.448-4.1505-.0133-3.376 2.2707-5.7099 4.5064-6.0178 2.6785-.3601 4.6497.0976 6.0203 1.3981 3.1099 2.9519 2.5509 9.8266 2.1433 14.8467l-.0366.4485c-.3344 4.1199.9789 8.6732 13.2569 11.207 3.5017.7226 12.2311 1.7356 17.6332-4.4861.0671-.0793.1562-.2008.2588-.3448.1221-.1709.4101-.5724.6188-.7604.2221.4211.4516 1.7075.0915 3.315-.1489.7107-.6578 1.6319-.8399 1.9339-.2116.2253-.831.7395-1.2131.96-.3588.2075-.4809.6664-.2734 1.0253.1391.2404.3918.3747.6506.3747.1269 0 .2563-.033.3747-.1013.5163-.3002 1.2794-.9293 1.5889-1.267.0941-.0844.3375-.3161 1.2012-1.1668.3308-.3295.6127-.6737.858-.9752.1013-.1245.2221-.2734.3295-.3942.1139.3454.2555 1.1668.098 3.0013zm-11.3693 4.4794c-.1489-.0256-.299-.0525-.4443-.0842-2.8036-.6054-4.6088-1.4171-6.3542-2.2019-2.2995-1.035-4.4709-2.0127-8.3534-2.1311-3.9106-.1379-8.6433 2.0761-9.9206 5.9477-1.378 4.1791.3558 8.4059 4.314 10.5162 2.4264 1.2938 5.4479 1.8564 8.3894 1.8564 3.2845 0 6.4701-.7018 8.6146-1.8711 1.566-.8544 2.4435-1.9028 2.5363-3.0318.0439-.5248-.2539-.8361-.7116-1.0411 1.2962-.5737 2.474-1.3475 2.8915-2.0835.2795-.4919.2148-.8934.1111-1.1449-.1599-.3906-.5297-.5749-1.1925-.7641.9508-.5761 1.6514-1.2633 1.9602-1.832.1831-.3369.2319-.6518.1465-.9349-.2697-.8995-1.2218-1.0655-1.987-1.1997zm-2.5503 3.4126c-.607.1472-1.2325.2334-1.8584.2539l-.3601.0049c-.4138 0-.7494.3357-.7494.7494 0 .4138.3356.7494.7494.7494l.4052-.0049c.6642-.0219 1.3231-.1139 1.9673-.2571.3257.1031.7059.2041 1.0938.301.2209.0549.5041.1257.7421.1928-.6628.6164-2.5802 1.6502-4.2975 1.9077-.0043.0006-.0077.0032-.012.0039-.0021.0003-.0042-.0006-.0063-.0002-.2002.0354-.9716.1294-1.7222.1294-.0146 0-.033-.0049-.0439 0-.4125 0-.7482.3332-.7494.7458-.0024.4296.3759.7519.7934.7531.7239 0 1.4325-.0734 1.8057-.1262.2896.0877.6297.1579 1.0345.2287.2722.0476.6701.1172.9484.1892-.2234.4907-.8056 1.0143-1.6624 1.4817-3.647 1.9883-10.9434 2.4789-15.5809.0085-3.3431-1.7832-4.754-5.2068-3.5951-8.7245 1.0301-3.1209 4.9145-4.9212 8.185-4.9212.0891 0 .1782.0012.2649.0037 3.586.1099 5.5315.985 7.7846 1.9993 1.732.7787 3.6946 1.6624 6.652 2.3019.166.0354.3356.0647.5029.094.1965.0342.4858.0854.6628.1208-.3676.4625-1.4143 1.3632-2.9544 1.815z" fill="#0b0c0c"></path></g></svg>